# xmcd
#
# Track frame offsets:
#	150
#	17879
#	30867
#	51903
#	82150
#	120939
#	148546
#	192231
#	215434
#	264263
#	290466
#
# Disc length: 4206 seconds
#
# Revision: 0
# Processed by: cddbd v1.5.1PL0 Copyright (c) Steve Scherf et al.
# Submitted via: dBpowerAMP V4.0
#
DISCID=95106c0b
DTITLE=Beverly Jo Scott - Cut and Run Live CD 2
DYEAR=2005
DGENRE=Blues
TTITLE0=Great white ghost
TTITLE1=Norwegian wood
TTITLE2=Tolling
TTITLE3=Sublime guerison
TTITLE4=Mona Lisa Klaxon
TTITLE5=My soul´s on fire
TTITLE6=Twisted
TTITLE7=La poupée qui fait non
TTITLE8=Whisky blues
TTITLE9=One shot shy
TTITLE10=10 000 dragons
EXTD=
EXTT0=
EXTT1=
EXTT2=
EXTT3=
EXTT4=
EXTT5=
EXTT6=
EXTT7=
EXTT8=
EXTT9=
EXTT10=
PLAYORDER=
